<svg width="121" height="33" viewBox="0 0 121 33" fill="none" xmlns="http://www.w3.org/2000/svg">
<path d="M16.715 7.93193C16.647 7.84193 16.409 7.67193 16.001 7.42193C15.593 7.17193 15.083 6.91193 14.471 6.63993C13.859 6.36793 13.19 6.12993 12.465 5.92593C11.7572 5.72439 11.025 5.62142 10.289 5.61993C8.29403 5.61993 7.29703 6.28893 7.29703 7.62593C7.29703 8.03393 7.40403 8.37393 7.62003 8.64593C7.83503 8.91793 8.15203 9.16193 8.57203 9.37693C8.99103 9.59193 9.51803 9.79093 10.152 9.97193L11.558 10.3649L12.363 10.5839C13.519 10.9009 14.561 11.2469 15.491 11.6209C16.42 11.9949 17.208 12.4599 17.854 13.0149C18.4985 13.5682 19.0098 14.2597 19.35 15.0379C19.7 15.8309 19.877 16.7829 19.877 17.8939C19.877 19.2539 19.622 20.4039 19.112 21.3449C18.602 22.2849 17.927 23.0449 17.089 23.6229C16.249 24.2009 15.287 24.6199 14.199 24.8809C13.111 25.1409 11.989 25.2719 10.833 25.2719C8.99124 25.2615 7.16004 24.9925 5.39303 24.4729C4.50903 24.2129 3.65303 23.9009 2.82603 23.5379C2.02398 23.1894 1.25546 22.7683 0.530029 22.2799L2.97803 17.4179C3.06803 17.5309 3.36303 17.7469 3.86203 18.0639C4.36003 18.3809 4.97803 18.6989 5.71503 19.0159C6.45103 19.3329 7.27303 19.6159 8.18003 19.8659C9.08603 20.1159 10.004 20.2399 10.934 20.2399C12.906 20.2399 13.892 19.6399 13.892 18.4379C13.892 17.9849 13.744 17.6109 13.45 17.3159C13.155 17.0209 12.747 16.7549 12.226 16.5169C11.7373 16.2981 11.2349 16.1111 10.722 15.9569L9.02003 15.4619L8.04403 15.1739C6.93303 14.8339 5.97003 14.4659 5.15403 14.0689C4.33803 13.6719 3.66403 13.2129 3.13103 12.6919C2.60791 12.1851 2.20179 11.5701 1.94103 10.8899C1.68003 10.2099 1.55003 9.41693 1.55003 8.50993C1.55003 7.23993 1.78803 6.11893 2.26403 5.14393C2.72292 4.19101 3.38432 3.34975 4.20203 2.67893C5.04254 1.99714 6.0064 1.48346 7.04103 1.16593C8.11703 0.825932 9.25603 0.655932 10.458 0.655932C11.296 0.655932 12.124 0.735932 12.94 0.893932C13.756 1.05293 14.538 1.25693 15.286 1.50593C16.034 1.75593 16.731 2.03893 17.376 2.35593C18.023 2.67293 18.618 2.99093 19.162 3.30793L16.714 7.93193H16.715ZM40.139 24.9999H34.699V14.9699C34.699 13.8139 34.472 12.9639 34.019 12.4199C33.565 11.8759 32.942 11.6039 32.149 11.6039C31.831 11.6039 31.486 11.6779 31.112 11.8249C30.7186 11.9837 30.3518 12.2015 30.024 12.4709C29.6617 12.7652 29.336 13.102 29.054 13.4739C28.757 13.8637 28.5272 14.3004 28.374 14.7659V24.9999H22.934V0.179932H28.374V10.1419C29.0048 9.10192 29.9035 8.25056 30.976 7.67693C32.052 7.09893 33.236 6.80993 34.529 6.80993C35.73 6.80993 36.699 7.01993 37.436 7.43893C38.172 7.85893 38.739 8.39093 39.136 9.03693C39.532 9.68293 39.799 10.4079 39.935 11.2129C40.071 12.0179 40.139 12.8049 40.139 13.5759V24.9999ZM52.479 25.3399C50.96 25.3399 49.606 25.0899 48.416 24.5919C47.226 24.0929 46.223 23.4189 45.406 22.5689C44.5917 21.7209 43.9612 20.7139 43.554 19.6109C43.1337 18.4855 42.9203 17.2933 42.924 16.0919C42.924 14.8679 43.134 13.6949 43.554 12.5729C43.9615 11.4699 44.5923 10.4628 45.407 9.61493C46.223 8.76493 47.226 8.08493 48.416 7.57493C49.606 7.06493 50.96 6.80993 52.479 6.80993C53.998 6.80993 55.346 7.06493 56.525 7.57493C57.704 8.08493 58.701 8.76493 59.517 9.61493C60.3331 10.465 60.9691 11.4711 61.387 12.5729C61.8179 13.696 62.0369 14.8891 62.033 16.0919C62.0368 17.2933 61.8233 18.4855 61.403 19.6109C60.9959 20.7139 60.3654 21.7209 59.551 22.5689C58.735 23.4189 57.731 24.0929 56.541 24.5919C55.351 25.0909 53.998 25.3399 52.479 25.3399ZM48.5 16.0919C48.5 17.4969 48.874 18.6249 49.622 19.4749C50.37 20.3249 51.322 20.7499 52.478 20.7499C53.0183 20.7557 53.5529 20.6395 54.042 20.4099C54.518 20.1829 54.932 19.8659 55.282 19.4579C55.65 19.0214 55.9329 18.5197 56.116 17.9789C56.3248 17.372 56.4283 16.7338 56.422 16.0919C56.422 14.6869 56.048 13.5589 55.3 12.7089C54.552 11.8589 53.611 11.4339 52.478 11.4339C51.9391 11.4296 51.4058 11.543 50.9153 11.7661C50.4247 11.9893 49.9888 12.3168 49.638 12.7259C49.2708 13.1627 48.9886 13.6643 48.806 14.2049C48.5972 14.8119 48.4938 15.4501 48.5 16.0919ZM76.276 11.8079C74.961 11.8309 73.771 12.0459 72.706 12.4539C71.641 12.8619 70.87 13.4739 70.394 14.2899V24.9999H64.954V7.14993H69.952V10.7539C70.564 9.55293 71.352 8.61193 72.315 7.93193C73.278 7.25193 74.304 6.90093 75.392 6.87793H75.936C76.049 6.87793 76.163 6.88893 76.276 6.91193V11.8079ZM90.35 24.0479C89.5136 24.3959 88.6563 24.6911 87.783 24.9319C86.82 25.2039 85.851 25.3399 84.876 25.3399C84.196 25.3399 83.556 25.2549 82.956 25.0849C82.3774 24.9266 81.8384 24.6486 81.374 24.2689C80.921 23.8949 80.564 23.4019 80.304 22.7899C80.042 22.1779 79.912 21.4409 79.912 20.5799V11.2639H77.634V7.14993H79.912V1.47193H85.352V7.14993H88.99V11.2639H85.352V18.7099C85.352 19.2999 85.499 19.7239 85.794 19.9849C86.089 20.2449 86.463 20.3759 86.916 20.3759C87.324 20.3759 87.743 20.3079 88.174 20.1719C88.604 20.0359 88.979 19.8889 89.296 19.7299L90.35 24.0479ZM92.627 0.179932H98.067V18.6419C98.067 20.0019 98.645 20.6819 99.801 20.6819C100.073 20.6819 100.373 20.6419 100.702 20.5629C101.031 20.4829 101.332 20.3649 101.603 20.2059L102.317 24.2859C101.637 24.6029 100.855 24.8529 99.971 25.0339C99.087 25.2149 98.26 25.3059 97.489 25.3059C95.925 25.3059 94.724 24.8979 93.885 24.0819C93.046 23.2659 92.627 22.0869 92.627 20.5459V0.179932ZM104.083 27.6859C104.537 27.8449 104.962 27.9579 105.358 28.0259C105.712 28.0899 106.07 28.1241 106.429 28.1279C107.087 28.1279 107.597 27.9009 107.959 27.4479C108.322 26.9949 108.651 26.1779 108.945 24.9999L102.145 7.14993H107.755L111.903 20.3419L115.473 7.14993H120.573L113.773 27.8899C113.324 29.3253 112.431 30.5812 111.223 31.4769C109.999 32.3949 108.549 32.8539 106.871 32.8539C106.409 32.8532 105.949 32.8134 105.494 32.7349C105.012 32.6508 104.54 32.5198 104.084 32.3439V27.6859H104.083Z" fill="currentColor"/>
</svg>
