<svg width="375" height="300" viewBox="0 0 375 300" fill="none" xmlns="http://www.w3.org/2000/svg">
<g clip-path="url(#clip0_305_65)">
<path fill-rule="evenodd" clip-rule="evenodd" d="M-263.351 570.909C-233.666 648.24 -189.662 694.897 -91.561 698.286C6.54099 701.676 75.524 637.739 164.482 625.066C253.44 612.392 299.722 732.961 405.212 777.598C510.7 822.236 679.987 777.931 783.112 651.976C886.24 526.021 878.62 327.29 799.392 238.798C720.162 150.307 608.257 84.743 243.5 224.76C-121.257 364.777 -293.037 493.578 -263.352 570.909H-263.351ZM-514 -377.482C-514 -294.649 -489.64 -235.322 -399.268 -197C-308.897 -158.679 -221.582 -193.648 -133.991 -173.6C-46.401 -153.552 -46.401 -24.405 36.086 55.071C118.572 134.547 292.491 153.852 433.906 73.221C575.321 -7.411 639.426 -195.675 597.173 -306.681C554.919 -417.687 473.943 -519 83.236 -519C-307.471 -519 -514 -460.314 -514 -377.482Z" fill="#4B3F6B"/>
</g>
<defs>
<clipPath id="clip0_305_65">
<rect width="375" height="300" fill="white"/>
</clipPath>
</defs>
</svg>
